<svg width="626" height="872" viewBox="0 0 626 872" fill="none" xmlns="http://www.w3.org/2000/svg">
<g clip-path="url(#clip0_200_2251)">
<path d="M242.734 0.328125V148.013C161.822 206.024 80.9112 264.103 0 322.114V174.43C80.9112 116.484 161.822 58.4063 242.734 0.328125Z" fill="#0074FF"/>
<path d="M625.928 270.242V422.108C546.013 479.39 466.164 536.672 386.248 594.02V442.22C466.164 384.872 546.013 327.59 625.928 270.242Z" fill="#0074FF"/>
<path d="M625.926 543.004V691.286C543.753 750.227 461.647 809.168 379.475 868.043H172.717C323.786 759.718 474.856 651.394 625.926 543.004Z" fill="#0074FF"/>
<path d="M625.917 0V143.967C546.001 201.249 466.152 258.597 386.236 315.879C338.38 350.195 290.59 384.511 242.734 418.827C161.822 476.905 80.9112 534.917 0 592.928V448.961C80.9112 390.949 161.822 332.937 242.734 274.859C290.59 240.543 338.38 206.227 386.236 171.911C466.152 114.63 546.001 57.2817 625.917 0Z" fill="#0074FF"/>
<path d="M242.734 545.152V697.019C161.822 755.03 80.9112 813.108 0 871.12V719.321C80.9112 661.242 161.822 603.231 242.734 545.152Z" fill="#0074FF"/>
</g>
<defs>
<clipPath id="clip0_200_2251">
<rect width="625.917" height="871.106" fill="white"/>
</clipPath>
</defs>
</svg>
