<svg width="754" height="197" viewBox="0 0 754 197" fill="none" xmlns="http://www.w3.org/2000/svg">
<g clip-path="url(#clip0_200_2109)">
<path d="M245.315 62.5742V74.9343C238.543 79.7895 231.772 84.6502 225 89.5054V77.1453C231.772 72.2957 238.543 67.4349 245.315 62.5742Z" fill="white"/>
<path d="M277.385 85.166V97.8761C270.697 102.67 264.014 107.464 257.325 112.264V99.5593C264.014 94.7597 270.697 89.9656 277.385 85.166Z" fill="white"/>
<path d="M277.385 107.992V120.402C270.508 125.335 263.636 130.268 256.759 135.196H239.455C252.098 126.13 264.741 117.064 277.385 107.992Z" fill="white"/>
<path d="M277.385 62.5469V74.5959C270.696 79.39 264.013 84.1896 257.325 88.9836C253.32 91.8556 249.32 94.7276 245.315 97.5996C238.543 102.46 231.772 107.315 225 112.171V100.122C231.772 95.2664 238.543 90.4113 245.315 85.5506C249.32 82.6786 253.32 79.8066 257.325 76.9346C264.013 72.1405 270.696 67.3409 277.385 62.5469Z" fill="white"/>
<path d="M245.315 108.172V120.882C238.543 125.737 231.772 130.598 225 135.453V122.748C231.772 117.888 238.543 113.033 245.315 108.172Z" fill="white"/>
</g>
<path d="M333.19 101.98C332.87 100.77 332.33 99.69 331.56 98.72C330.84 97.76 329.87 96.95 328.67 96.31C327.5 95.63 326.08 95.12 324.39 94.8C326.08 93.76 327.32 92.49 328.13 91C328.97 89.47 329.39 87.57 329.39 85.27C329.39 81.5 328.31 78.6 326.14 76.59C323.96 74.58 320.79 73.58 316.61 73.58H299V119.04H318C320.41 119.04 322.58 118.76 324.51 118.2C326.44 117.63 328.07 116.79 329.39 115.66C330.76 114.54 331.8 113.15 332.53 111.5C333.29 109.86 333.67 107.97 333.67 105.84C333.67 104.47 333.51 103.18 333.19 101.98ZM310.82 82.62H312.99C316.69 82.62 318.54 84.09 318.54 87.02C318.54 89.95 316.69 91.42 312.99 91.42H310.82V82.62ZM319.8 108.73C318.52 109.49 316.39 109.88 313.41 109.88H310.82V100.23H313.41C316.39 100.23 318.52 100.61 319.8 101.37C321.09 102.14 321.73 103.36 321.73 105.05C321.73 106.74 321.09 107.97 319.8 108.73ZM338.73 88.11V119.04H349.64V88.11H338.73ZM349.82 73.88C349.5 73.11 349.06 72.45 348.49 71.89C347.93 71.32 347.27 70.88 346.5 70.56C345.78 70.24 345 70.08 344.15 70.08C343.3 70.08 342.5 70.24 341.74 70.56C341.02 70.88 340.37 71.32 339.81 71.89C339.25 72.45 338.81 73.11 338.48 73.88C338.16 74.6 338 75.38 338 76.23C338 77.08 338.16 77.88 338.48 78.64C338.81 79.36 339.25 80.01 339.81 80.57C340.37 81.13 341.02 81.58 341.74 81.9C342.5 82.22 343.3 82.38 344.14 82.38H344.15C345 82.38 345.78 82.22 346.5 81.9C347.27 81.58 347.93 81.13 348.49 80.57C348.9 80.17 349.24 79.72 349.52 79.23C349.63 79.04 349.73 78.84 349.82 78.64C350.14 77.88 350.3 77.07 350.3 76.23C350.3 75.39 350.14 74.6 349.82 73.88ZM356.1 75.38V119.04H367.01V69L356.1 75.38ZM373.47 75.38V119.04H384.38V69L373.47 75.38ZM429.98 87.69C428.81 84.91 427.2 82.5 425.15 80.45C423.14 78.36 420.77 76.69 418.04 75.44C415.34 74.2 412.45 73.58 409.35 73.58H391.87V119.04H409.35C412.49 119.04 415.4 118.42 418.1 117.17C420.83 115.93 423.2 114.26 425.21 112.17C427.26 110.08 428.85 107.66 429.98 104.93C431.14 102.16 431.73 99.28 431.73 96.31C431.73 93.34 431.14 90.42 429.98 87.69ZM418.46 101.43C417.9 102.96 417.05 104.29 415.93 105.41C414.84 106.54 413.5 107.42 411.89 108.07C410.28 108.71 408.45 109.03 406.4 109.03H403.69V83.59H406.4C408.41 83.59 410.22 83.91 411.83 84.55C413.43 85.19 414.78 86.08 415.87 87.2C416.99 88.33 417.86 89.68 418.46 91.24C419.06 92.81 419.36 94.5 419.36 96.31C419.36 98.12 419.06 99.87 418.46 101.43ZM437.25 88.11V119.04H448.16V88.11H437.25ZM448.34 73.88C448.02 73.11 447.58 72.45 447.01 71.89C446.45 71.32 445.79 70.88 445.02 70.56C444.3 70.24 443.52 70.08 442.67 70.08C441.82 70.08 441.02 70.24 440.26 70.56C439.54 70.88 438.89 71.32 438.33 71.89C437.77 72.45 437.33 73.11 437 73.88C436.68 74.6 436.52 75.38 436.52 76.23C436.52 77.08 436.68 77.88 437 78.64C437.33 79.36 437.77 80.01 438.33 80.57C438.89 81.13 439.54 81.58 440.26 81.9C441.02 82.22 441.83 82.38 442.67 82.38C443.51 82.38 444.3 82.22 445.02 81.9C445.79 81.58 446.45 81.13 447.01 80.57C447.58 80.01 448.02 79.36 448.34 78.64C448.66 77.88 448.82 77.07 448.82 76.23C448.82 75.39 448.66 74.6 448.34 73.88ZM486.76 94.98C486.44 93.7 485.83 92.53 484.95 91.48C483.86 90.2 482.54 89.21 480.97 88.53C479.44 87.81 477.59 87.44 475.42 87.44C473.37 87.44 471.58 87.77 470.05 88.41C468.53 89.01 467.02 90.22 465.53 92.03V88.11H454.62V119.04H465.53V102.52C465.53 100.47 466.01 98.9 466.98 97.82C467.98 96.69 469.41 96.13 471.26 96.13C471.94 96.13 472.59 96.23 473.19 96.43C473.79 96.63 474.34 96.97 474.82 97.45C475.38 98.02 475.76 98.78 475.96 99.75C476.21 100.67 476.33 101.9 476.33 103.42V119.04H487.24V99.38C487.24 97.74 487.08 96.27 486.76 94.98ZM517.36 88.11V91.36C514.87 88.63 511.79 87.26 508.13 87.26C505.88 87.26 503.79 87.71 501.86 88.59C499.97 89.43 498.32 90.62 496.92 92.15C495.55 93.64 494.46 95.4 493.66 97.45C492.86 99.46 492.45 101.66 492.45 104.03C492.45 106.4 492.82 108.49 493.54 110.42C494.3 112.31 495.35 113.94 496.68 115.3C498.04 116.67 499.65 117.73 501.5 118.5C503.35 119.26 505.38 119.64 507.59 119.64C508.59 119.64 509.52 119.56 510.36 119.4C511.21 119.28 512.01 119.06 512.78 118.74C513.54 118.42 514.28 118.02 515.01 117.53C515.77 117.01 516.55 116.37 517.36 115.6V118.56C517.36 120.85 516.74 122.64 515.49 123.93C514.28 125.21 512.53 125.86 510.24 125.86C507.55 125.86 505.82 124.83 505.06 122.78H492.76C493.08 124.47 493.72 126.02 494.69 127.42C495.65 128.87 496.88 130.12 498.36 131.16C499.89 132.25 501.66 133.09 503.67 133.69C505.68 134.3 507.89 134.6 510.3 134.6C512.43 134.6 514.4 134.36 516.21 133.87C518.06 133.39 519.71 132.73 521.16 131.88C522.6 131.04 523.83 130.04 524.84 128.87C525.88 127.74 526.64 126.52 527.13 125.19C527.49 124.15 527.77 122.94 527.97 121.57C528.17 120.21 528.27 118.66 528.27 116.93V88.11H517.36ZM517.3 106.26C516.94 107.1 516.43 107.85 515.79 108.49C515.19 109.13 514.44 109.63 513.56 110C512.72 110.36 511.81 110.54 510.85 110.54C509.84 110.54 508.9 110.36 508.01 110C507.17 109.63 506.42 109.13 505.78 108.49C505.18 107.85 504.7 107.1 504.33 106.26C503.97 105.37 503.79 104.43 503.79 103.42C503.79 102.41 503.97 101.55 504.33 100.71C504.74 99.87 505.26 99.14 505.9 98.54C506.54 97.9 507.29 97.39 508.13 97.03C508.98 96.63 509.88 96.43 510.85 96.43C511.77 96.43 512.65 96.61 513.5 96.97C514.38 97.33 515.15 97.84 515.79 98.48C516.43 99.12 516.94 99.87 517.3 100.71C517.7 101.55 517.9 102.48 517.9 103.48C517.9 104.48 517.7 105.37 517.3 106.26Z" fill="white"/>
<defs>
<clipPath id="clip0_200_2109">
<rect width="52.3846" height="72.9052" fill="white" transform="translate(225 62.5469)"/>
</clipPath>
</defs>
</svg>